<?xml version="1.0" encoding="UTF-8" standalone="no"?>
<!DOCTYPE svg PUBLIC "-//W3C//DTD SVG 1.1//EN"
 "http://www.w3.org/Graphics/SVG/1.1/DTD/svg11.dtd">
<!-- Generated by graphviz version 2.42.4 (0)
 -->
<!-- Title: material3_roadmap_dependencies Pages: 1 -->
<svg width="867pt" height="652pt"
 viewBox="0.00 0.00 866.80 651.80" xmlns="http://www.w3.org/2000/svg" xmlns:xlink="http://www.w3.org/1999/xlink">
<g id="graph0" class="graph" transform="scale(1 1) rotate(0) translate(14.4 637.4)">
<title>material3_roadmap_dependencies</title>
<polygon fill="#ffffff" stroke="transparent" points="-14.4,14.4 -14.4,-637.4 852.4,-637.4 852.4,14.4 -14.4,14.4"/>
<text text-anchor="middle" x="419" y="-609.4" font-family="DejaVu Sans" font-size="12.00">Roo Windows Material 3 delivery dependencies</text>
<g id="clust1" class="cluster">
<title>cluster_phase0</title>
<path fill="#ffffff" stroke="#cbd5e1" d="M20,-467C20,-467 348,-467 348,-467 354,-467 360,-473 360,-479 360,-479 360,-582 360,-582 360,-588 354,-594 348,-594 348,-594 20,-594 20,-594 14,-594 8,-588 8,-582 8,-582 8,-479 8,-479 8,-473 14,-467 20,-467"/>
<text text-anchor="middle" x="184" y="-580.4" font-family="DejaVu Sans" font-size="12.00">Phase 0 — Framework baseline</text>
</g>
<g id="clust2" class="cluster">
<title>cluster_phase1</title>
<path fill="#ffffff" stroke="#cbd5e1" d="M114,-278C114,-278 630,-278 630,-278 636,-278 642,-284 642,-290 642,-290 642,-447 642,-447 642,-453 636,-459 630,-459 630,-459 114,-459 114,-459 108,-459 102,-453 102,-447 102,-447 102,-290 102,-290 102,-284 108,-278 114,-278"/>
<text text-anchor="middle" x="372" y="-445.4" font-family="DejaVu Sans" font-size="12.00">Phase 1 — Compact application shell</text>
</g>
<g id="clust3" class="cluster">
<title>cluster_phase2</title>
<path fill="#ffffff" stroke="#cbd5e1" d="M114,-8C114,-8 818,-8 818,-8 824,-8 830,-14 830,-20 830,-20 830,-123 830,-123 830,-129 824,-135 818,-135 818,-135 114,-135 114,-135 108,-135 102,-129 102,-123 102,-123 102,-20 102,-20 102,-14 108,-8 114,-8"/>
<text text-anchor="middle" x="466" y="-121.4" font-family="DejaVu Sans" font-size="12.00">Phase 2 — Complete configuration flow</text>
</g>
<g id="clust4" class="cluster">
<title>cluster_phase3</title>
<path fill="#ffffff" stroke="#cbd5e1" d="M114,-143C114,-143 536,-143 536,-143 542,-143 548,-149 548,-155 548,-155 548,-258 548,-258 548,-264 542,-270 536,-270 536,-270 114,-270 114,-270 108,-270 102,-264 102,-258 102,-258 102,-155 102,-155 102,-149 108,-143 114,-143"/>
<text text-anchor="middle" x="325" y="-256.4" font-family="DejaVu Sans" font-size="12.00">Phase 3 — Consolidation and adaptive breadth</text>
</g>
<!-- p0_1 -->
<g id="node1" class="node">
<title>p0_1</title>
<g id="a_node1"><a xlink:href="material3_roadmap.md#p0-1" xlink:title="Theme ownership split" target="_top">
<path fill="#ffffff" stroke="#16a34a" stroke-width="2.2" d="M58,-565C58,-565 28,-565 28,-565 22,-565 16,-559 16,-553 16,-553 16,-541 16,-541 16,-535 22,-529 28,-529 28,-529 58,-529 58,-529 64,-529 70,-535 70,-541 70,-541 70,-553 70,-553 70,-559 64,-565 58,-565"/>
<text text-anchor="middle" x="43" y="-544.5" font-family="DejaVu Sans" font-size="10.00" fill="#334155">P0.1</text>
</a>
</g>
</g>
<!-- p0_2 -->
<g id="node2" class="node">
<title>p0_2</title>
<g id="a_node2"><a xlink:href="material3_roadmap.md#p0-2" xlink:title="Supported&#45;target baseline for the theme split" target="_top">
<path fill="#ffffff" stroke="#16a34a" stroke-width="2.2" d="M152,-565C152,-565 122,-565 122,-565 116,-565 110,-559 110,-553 110,-553 110,-541 110,-541 110,-535 116,-529 122,-529 122,-529 152,-529 152,-529 158,-529 164,-535 164,-541 164,-541 164,-553 164,-553 164,-559 158,-565 152,-565"/>
<text text-anchor="middle" x="137" y="-544.5" font-family="DejaVu Sans" font-size="10.00" fill="#334155">P0.2</text>
</a>
</g>
</g>
<!-- p0_1&#45;&gt;p0_2 -->
<g id="edge1" class="edge">
<title>p0_1&#45;&gt;p0_2</title>
<path fill="none" stroke="#64748b" stroke-width="1.1" d="M70.12,-547C80.22,-547 91.9,-547 102.6,-547"/>
<polygon fill="#64748b" stroke="#64748b" stroke-width="1.1" points="102.82,-549.45 109.82,-547 102.82,-544.55 102.82,-549.45"/>
</g>
<!-- p1_1 -->
<g id="node6" class="node">
<title>p1_1</title>
<g id="a_node6"><a xlink:href="material3_roadmap.md#p1-1" xlink:title="Finish app&#45;bar component verification" target="_top">
<path fill="#ffffff" stroke="#16a34a" stroke-width="2.2" d="M152,-430C152,-430 122,-430 122,-430 116,-430 110,-424 110,-418 110,-418 110,-406 110,-406 110,-400 116,-394 122,-394 122,-394 152,-394 152,-394 158,-394 164,-400 164,-406 164,-406 164,-418 164,-418 164,-424 158,-430 152,-430"/>
<text text-anchor="middle" x="137" y="-409.5" font-family="DejaVu Sans" font-size="10.00" fill="#334155">P1.1</text>
</a>
</g>
</g>
<!-- p0_1&#45;&gt;p1_1 -->
<g id="edge2" class="edge">
<title>p0_1&#45;&gt;p1_1</title>
<path fill="none" stroke="#64748b" stroke-width="1.1" d="M62.56,-528.97C65.18,-526.07 67.75,-523.03 70,-520 87.33,-496.68 86.82,-487.77 102,-463 107.41,-454.18 113.61,-444.7 119.22,-436.34"/>
<polygon fill="#64748b" stroke="#64748b" stroke-width="1.1" points="121.49,-437.36 123.38,-430.19 117.43,-434.62 121.49,-437.36"/>
</g>
<!-- p2_2 -->
<g id="node18" class="node">
<title>p2_2</title>
<g id="a_node18"><a xlink:href="material3_roadmap.md#p2-2" xlink:title="Design progress indicators" target="_top">
<path fill="#ffffff" stroke="#cbd5e1" stroke-width="2.2" d="M152,-106C152,-106 122,-106 122,-106 116,-106 110,-100 110,-94 110,-94 110,-82 110,-82 110,-76 116,-70 122,-70 122,-70 152,-70 152,-70 158,-70 164,-76 164,-82 164,-82 164,-94 164,-94 164,-100 158,-106 152,-106"/>
<text text-anchor="middle" x="137" y="-85.5" font-family="DejaVu Sans" font-size="10.00" fill="#334155">P2.2</text>
</a>
</g>
</g>
<!-- p0_1&#45;&gt;p2_2 -->
<g id="edge3" class="edge">
<title>p0_1&#45;&gt;p2_2</title>
<path fill="none" stroke="#64748b" stroke-width="1.1" d="M64.56,-528.76C66.7,-526.03 68.6,-523.08 70,-520 140.09,-365.2 45.99,-299.43 102,-139 105.3,-129.55 110.76,-120.17 116.35,-112.07"/>
<polygon fill="#64748b" stroke="#64748b" stroke-width="1.1" points="118.51,-113.26 120.62,-106.15 114.54,-110.39 118.51,-113.26"/>
</g>
<!-- p3_1 -->
<g id="node22" class="node">
<title>p3_1</title>
<g id="a_node22"><a xlink:href="material3_roadmap.md#p3-1" xlink:title="Specify the existing card, checkbox, radio&#45;button, and switch families" target="_top">
<path fill="#ffffff" stroke="#cbd5e1" stroke-width="2.2" d="M152,-241C152,-241 122,-241 122,-241 116,-241 110,-235 110,-229 110,-229 110,-217 110,-217 110,-211 116,-205 122,-205 122,-205 152,-205 152,-205 158,-205 164,-211 164,-217 164,-217 164,-229 164,-229 164,-235 158,-241 152,-241"/>
<text text-anchor="middle" x="137" y="-220.5" font-family="DejaVu Sans" font-size="10.00" fill="#334155">P3.1</text>
</a>
</g>
</g>
<!-- p0_1&#45;&gt;p3_1 -->
<g id="edge4" class="edge">
<title>p0_1&#45;&gt;p3_1</title>
<path fill="none" stroke="#64748b" stroke-width="1.1" d="M64.43,-528.7C66.59,-525.98 68.53,-523.05 70,-520 117.75,-420.62 63.3,-377.24 102,-274 105.51,-264.63 111.03,-255.26 116.61,-247.16"/>
<polygon fill="#64748b" stroke="#64748b" stroke-width="1.1" points="118.77,-248.35 120.85,-241.23 114.79,-245.5 118.77,-248.35"/>
</g>
<!-- p0_3 -->
<g id="node3" class="node">
<title>p0_3</title>
<g id="a_node3"><a xlink:href="material3_roadmap.md#p0-3" xlink:title="Keyboard/focus framework" target="_top">
<path fill="#ffffff" stroke="#16a34a" stroke-width="2.2" d="M58,-511C58,-511 28,-511 28,-511 22,-511 16,-505 16,-499 16,-499 16,-487 16,-487 16,-481 22,-475 28,-475 28,-475 58,-475 58,-475 64,-475 70,-481 70,-487 70,-487 70,-499 70,-499 70,-505 64,-511 58,-511"/>
<text text-anchor="middle" x="43" y="-490.5" font-family="DejaVu Sans" font-size="10.00" fill="#334155">P0.3</text>
</a>
</g>
</g>
<!-- p0_4 -->
<g id="node4" class="node">
<title>p0_4</title>
<g id="a_node4"><a xlink:href="material3_roadmap.md#p0-4" xlink:title="Semantic Back/Escape routing" target="_top">
<path fill="#ffffff" stroke="#16a34a" stroke-width="2.2" d="M246,-511C246,-511 216,-511 216,-511 210,-511 204,-505 204,-499 204,-499 204,-487 204,-487 204,-481 210,-475 216,-475 216,-475 246,-475 246,-475 252,-475 258,-481 258,-487 258,-487 258,-499 258,-499 258,-505 252,-511 246,-511"/>
<text text-anchor="middle" x="231" y="-490.5" font-family="DejaVu Sans" font-size="10.00" fill="#334155">P0.4</text>
</a>
</g>
</g>
<!-- p0_3&#45;&gt;p0_4 -->
<g id="edge5" class="edge">
<title>p0_3&#45;&gt;p0_4</title>
<path fill="none" stroke="#64748b" stroke-width="1.1" d="M70.25,-493C103.35,-493 160.28,-493 196.48,-493"/>
<polygon fill="#64748b" stroke="#64748b" stroke-width="1.1" points="196.88,-495.45 203.88,-493 196.88,-490.55 196.88,-495.45"/>
</g>
<!-- p0_3&#45;&gt;p1_1 -->
<g id="edge6" class="edge">
<title>p0_3&#45;&gt;p1_1</title>
<path fill="none" stroke="#64748b" stroke-width="1.1" d="M64.88,-474.62C78.26,-462.83 95.74,-447.44 110.02,-434.87"/>
<polygon fill="#64748b" stroke="#64748b" stroke-width="1.1" points="111.89,-436.49 115.52,-430.03 108.65,-432.82 111.89,-436.49"/>
</g>
<!-- p1_2 -->
<g id="node7" class="node">
<title>p1_2</title>
<g id="a_node7"><a xlink:href="material3_roadmap.md#p1-2" xlink:title="Amend the navigation&#45;bar design for keyboard operation" target="_top">
<path fill="#ffffff" stroke="#16a34a" stroke-width="2.2" d="M152,-367C152,-367 122,-367 122,-367 116,-367 110,-361 110,-355 110,-355 110,-343 110,-343 110,-337 116,-331 122,-331 122,-331 152,-331 152,-331 158,-331 164,-337 164,-343 164,-343 164,-355 164,-355 164,-361 158,-367 152,-367"/>
<text text-anchor="middle" x="137" y="-346.5" font-family="DejaVu Sans" font-size="10.00" fill="#334155">P1.2</text>
</a>
</g>
</g>
<!-- p0_3&#45;&gt;p1_2 -->
<g id="edge7" class="edge">
<title>p0_3&#45;&gt;p1_2</title>
<path fill="none" stroke="#64748b" stroke-width="1.1" d="M51.9,-474.95C61.98,-452.79 80.71,-414.52 102,-385 105.04,-380.78 108.55,-376.55 112.12,-372.54"/>
<polygon fill="#64748b" stroke="#64748b" stroke-width="1.1" points="114.07,-374.04 117.01,-367.24 110.46,-370.72 114.07,-374.04"/>
</g>
<!-- p2_1 -->
<g id="node17" class="node">
<title>p2_1</title>
<g id="a_node17"><a xlink:href="material3_roadmap.md#p2-1" xlink:title="Implement single&#45;line Material 3 text fields" target="_top">
<path fill="#ffffff" stroke="#cbd5e1" stroke-width="2.2" d="M152,-52C152,-52 122,-52 122,-52 116,-52 110,-46 110,-40 110,-40 110,-28 110,-28 110,-22 116,-16 122,-16 122,-16 152,-16 152,-16 158,-16 164,-22 164,-28 164,-28 164,-40 164,-40 164,-46 158,-52 152,-52"/>
<text text-anchor="middle" x="137" y="-31.5" font-family="DejaVu Sans" font-size="10.00" fill="#334155">P2.1</text>
</a>
</g>
</g>
<!-- p0_3&#45;&gt;p2_1 -->
<g id="edge8" class="edge">
<title>p0_3&#45;&gt;p2_1</title>
<path fill="none" stroke="#64748b" stroke-width="1.1" d="M44.66,-474.57C47.54,-401.61 60.8,-133.54 102,-61 102.91,-59.39 103.96,-57.85 105.11,-56.37"/>
<polygon fill="#64748b" stroke="#64748b" stroke-width="1.1" points="107.11,-57.81 109.99,-50.97 103.48,-54.52 107.11,-57.81"/>
</g>
<!-- p0_3&#45;&gt;p3_1 -->
<g id="edge9" class="edge">
<title>p0_3&#45;&gt;p3_1</title>
<path fill="none" stroke="#64748b" stroke-width="1.1" d="M46.75,-474.72C52.98,-436.25 70.16,-344.64 102,-274 106.18,-264.72 111.98,-255.26 117.61,-247.05"/>
<polygon fill="#64748b" stroke="#64748b" stroke-width="1.1" points="119.82,-248.16 121.85,-241.03 115.82,-245.34 119.82,-248.16"/>
</g>
<!-- p0_5 -->
<g id="node5" class="node">
<title>p0_5</title>
<g id="a_node5"><a xlink:href="material3_roadmap.md#p0-5" xlink:title="Interactive&#45;transient slot and dialog lifetime migration" target="_top">
<path fill="#ffffff" stroke="#16a34a" stroke-width="2.2" d="M340,-511C340,-511 310,-511 310,-511 304,-511 298,-505 298,-499 298,-499 298,-487 298,-487 298,-481 304,-475 310,-475 310,-475 340,-475 340,-475 346,-475 352,-481 352,-487 352,-487 352,-499 352,-499 352,-505 346,-511 340,-511"/>
<text text-anchor="middle" x="325" y="-490.5" font-family="DejaVu Sans" font-size="10.00" fill="#334155">P0.5</text>
</a>
</g>
</g>
<!-- p0_4&#45;&gt;p0_5 -->
<g id="edge10" class="edge">
<title>p0_4&#45;&gt;p0_5</title>
<path fill="none" stroke="#64748b" stroke-width="1.1" d="M258.12,-493C268.22,-493 279.9,-493 290.6,-493"/>
<polygon fill="#64748b" stroke="#64748b" stroke-width="1.1" points="290.82,-495.45 297.82,-493 290.82,-490.55 290.82,-495.45"/>
</g>
<!-- p1_6 -->
<g id="node11" class="node">
<title>p1_6</title>
<g id="a_node11"><a xlink:href="material3_roadmap.md#p1-6" xlink:title="Reconcile menu ownership and input design" target="_top">
<path fill="#ffffff" stroke="#eab308" stroke-width="2.2" d="M434,-390C434,-390 404,-390 404,-390 398,-390 392,-384 392,-378 392,-378 392,-366 392,-366 392,-360 398,-354 404,-354 404,-354 434,-354 434,-354 440,-354 446,-360 446,-366 446,-366 446,-378 446,-378 446,-384 440,-390 434,-390"/>
<text text-anchor="middle" x="419" y="-369.5" font-family="DejaVu Sans" font-size="10.00" fill="#334155">P1.6</text>
</a>
</g>
</g>
<!-- p0_5&#45;&gt;p1_6 -->
<g id="edge11" class="edge">
<title>p0_5&#45;&gt;p1_6</title>
<path fill="none" stroke="#64748b" stroke-width="1.1" d="M348.63,-474.96C352.66,-471.23 356.64,-467.16 360,-463 378.26,-440.4 376.03,-430.27 392,-406 394.2,-402.66 396.62,-399.23 399.07,-395.89"/>
<polygon fill="#64748b" stroke="#64748b" stroke-width="1.1" points="401.24,-397.08 403.48,-390.01 397.32,-394.14 401.24,-397.08"/>
</g>
<!-- p1_8 -->
<g id="node13" class="node">
<title>p1_8</title>
<g id="a_node13"><a xlink:href="material3_roadmap.md#p1-8" xlink:title="Implement basic Material 3 dialogs" target="_top">
<path fill="#ffffff" stroke="#cbd5e1" stroke-width="2.2" d="M528,-430C528,-430 498,-430 498,-430 492,-430 486,-424 486,-418 486,-418 486,-406 486,-406 486,-400 492,-394 498,-394 498,-394 528,-394 528,-394 534,-394 540,-400 540,-406 540,-406 540,-418 540,-418 540,-424 534,-430 528,-430"/>
<text text-anchor="middle" x="513" y="-409.5" font-family="DejaVu Sans" font-size="10.00" fill="#334155">P1.8</text>
</a>
</g>
</g>
<!-- p0_5&#45;&gt;p1_8 -->
<g id="edge12" class="edge">
<title>p0_5&#45;&gt;p1_8</title>
<path fill="none" stroke="#64748b" stroke-width="1.1" d="M352.25,-481.57C385.63,-467.03 443.23,-441.95 479.39,-426.2"/>
<polygon fill="#64748b" stroke="#64748b" stroke-width="1.1" points="480.44,-428.42 485.88,-423.38 478.48,-423.92 480.44,-428.42"/>
</g>
<!-- p1_9 -->
<g id="node14" class="node">
<title>p1_9</title>
<g id="a_node14"><a xlink:href="material3_roadmap.md#p1-9" xlink:title="Reconcile snackbar queue ownership design" target="_top">
<path fill="#ffffff" stroke="#eab308" stroke-width="2.2" d="M434,-332C434,-332 404,-332 404,-332 398,-332 392,-326 392,-320 392,-320 392,-308 392,-308 392,-302 398,-296 404,-296 404,-296 434,-296 434,-296 440,-296 446,-302 446,-308 446,-308 446,-320 446,-320 446,-326 440,-332 434,-332"/>
<text text-anchor="middle" x="419" y="-311.5" font-family="DejaVu Sans" font-size="10.00" fill="#334155">P1.9</text>
</a>
</g>
</g>
<!-- p0_5&#45;&gt;p1_9 -->
<g id="edge13" class="edge">
<title>p0_5&#45;&gt;p1_9</title>
<path fill="none" stroke="#64748b" stroke-width="1.1" d="M350.2,-474.91C353.88,-471.29 357.34,-467.28 360,-463 388.69,-416.86 366.84,-393.16 392,-345 393.24,-342.62 394.7,-340.26 396.27,-337.96"/>
<polygon fill="#64748b" stroke="#64748b" stroke-width="1.1" points="398.43,-339.16 400.64,-332.08 394.5,-336.23 398.43,-339.16"/>
</g>
<!-- p3_7 -->
<g id="node28" class="node">
<title>p3_7</title>
<g id="a_node28"><a xlink:href="material3_roadmap.md#p3-7" xlink:title="Implement modal sheets and adopt transient lifetime" target="_top">
<path fill="#ffffff" stroke="#eab308" stroke-width="2.2" d="M434,-241C434,-241 404,-241 404,-241 398,-241 392,-235 392,-229 392,-229 392,-217 392,-217 392,-211 398,-205 404,-205 404,-205 434,-205 434,-205 440,-205 446,-211 446,-217 446,-217 446,-229 446,-229 446,-235 440,-241 434,-241"/>
<text text-anchor="middle" x="419" y="-220.5" font-family="DejaVu Sans" font-size="10.00" fill="#334155">P3.7</text>
</a>
</g>
</g>
<!-- p0_5&#45;&gt;p3_7 -->
<g id="edge14" class="edge">
<title>p0_5&#45;&gt;p3_7</title>
<path fill="none" stroke="#64748b" stroke-width="1.1" d="M350.89,-474.77C354.41,-471.22 357.63,-467.26 360,-463 401.42,-388.55 365.23,-354.88 392,-274 394.93,-265.15 399.2,-255.95 403.43,-247.83"/>
<polygon fill="#64748b" stroke="#64748b" stroke-width="1.1" points="405.79,-248.63 406.96,-241.3 401.48,-246.3 405.79,-248.63"/>
</g>
<!-- p1_4 -->
<g id="node9" class="node">
<title>p1_4</title>
<g id="a_node9"><a xlink:href="material3_roadmap.md#p1-4" xlink:title="Implement the compact LayoutScaffold slice" target="_top">
<path fill="#ffffff" stroke="#eab308" stroke-width="2.2" d="M340,-332C340,-332 310,-332 310,-332 304,-332 298,-326 298,-320 298,-320 298,-308 298,-308 298,-302 304,-296 310,-296 310,-296 340,-296 340,-296 346,-296 352,-302 352,-308 352,-308 352,-320 352,-320 352,-326 346,-332 340,-332"/>
<text text-anchor="middle" x="325" y="-311.5" font-family="DejaVu Sans" font-size="10.00" fill="#334155">P1.4</text>
</a>
</g>
</g>
<!-- p1_1&#45;&gt;p1_4 -->
<g id="edge15" class="edge">
<title>p1_1&#45;&gt;p1_4</title>
<path fill="none" stroke="#64748b" stroke-width="1.1" d="M164.47,-402.29C189.27,-392.79 227.07,-377.25 258,-360 270.57,-352.99 283.71,-344.17 294.93,-336.13"/>
<polygon fill="#64748b" stroke="#64748b" stroke-width="1.1" points="296.38,-338.11 300.61,-332.02 293.5,-334.14 296.38,-338.11"/>
</g>
<!-- p1_3 -->
<g id="node8" class="node">
<title>p1_3</title>
<g id="a_node8"><a xlink:href="material3_roadmap.md#p1-3" xlink:title="Implement compact navigation bar" target="_top">
<path fill="#ffffff" stroke="#16a34a" stroke-width="2.2" d="M246,-351C246,-351 216,-351 216,-351 210,-351 204,-345 204,-339 204,-339 204,-327 204,-327 204,-321 210,-315 216,-315 216,-315 246,-315 246,-315 252,-315 258,-321 258,-327 258,-327 258,-339 258,-339 258,-345 252,-351 246,-351"/>
<text text-anchor="middle" x="231" y="-330.5" font-family="DejaVu Sans" font-size="10.00" fill="#334155">P1.3</text>
</a>
</g>
</g>
<!-- p1_2&#45;&gt;p1_3 -->
<g id="edge16" class="edge">
<title>p1_2&#45;&gt;p1_3</title>
<path fill="none" stroke="#64748b" stroke-width="1.1" d="M164.12,-344.46C174.31,-342.68 186.13,-340.63 196.91,-338.76"/>
<polygon fill="#64748b" stroke="#64748b" stroke-width="1.1" points="197.34,-341.17 203.82,-337.55 196.5,-336.34 197.34,-341.17"/>
</g>
<!-- p1_3&#45;&gt;p1_4 -->
<g id="edge17" class="edge">
<title>p1_3&#45;&gt;p1_4</title>
<path fill="none" stroke="#64748b" stroke-width="1.1" d="M258.12,-327.61C268.31,-325.5 280.13,-323.06 290.91,-320.83"/>
<polygon fill="#64748b" stroke="#64748b" stroke-width="1.1" points="291.46,-323.22 297.82,-319.41 290.47,-318.42 291.46,-323.22"/>
</g>
<!-- p1_4&#45;&gt;p1_9 -->
<g id="edge18" class="edge">
<title>p1_4&#45;&gt;p1_9</title>
<path fill="none" stroke="#64748b" stroke-width="1.1" d="M352.12,-314C362.22,-314 373.9,-314 384.6,-314"/>
<polygon fill="#64748b" stroke="#64748b" stroke-width="1.1" points="384.82,-316.45 391.82,-314 384.82,-311.55 384.82,-316.45"/>
</g>
<!-- p3_3 -->
<g id="node24" class="node">
<title>p3_3</title>
<g id="a_node24"><a xlink:href="material3_roadmap.md#p3-3" xlink:title="Design adaptive navigation orchestration" target="_top">
<path fill="#ffffff" stroke="#eab308" stroke-width="2.2" d="M434,-187C434,-187 404,-187 404,-187 398,-187 392,-181 392,-175 392,-175 392,-163 392,-163 392,-157 398,-151 404,-151 404,-151 434,-151 434,-151 440,-151 446,-157 446,-163 446,-163 446,-175 446,-175 446,-181 440,-187 434,-187"/>
<text text-anchor="middle" x="419" y="-166.5" font-family="DejaVu Sans" font-size="10.00" fill="#334155">P3.3</text>
</a>
</g>
</g>
<!-- p1_4&#45;&gt;p3_3 -->
<g id="edge19" class="edge">
<title>p1_4&#45;&gt;p3_3</title>
<path fill="none" stroke="#64748b" stroke-width="1.1" d="M343.56,-295.82C349.28,-289.28 355.36,-281.63 360,-274 379.49,-241.99 371.53,-227.39 392,-196 392.75,-194.86 393.55,-193.72 394.38,-192.59"/>
<polygon fill="#64748b" stroke="#64748b" stroke-width="1.1" points="396.33,-194.08 398.83,-187.1 392.52,-191 396.33,-194.08"/>
</g>
<!-- p1_4&#45;&gt;p3_7 -->
<g id="edge20" class="edge">
<title>p1_4&#45;&gt;p3_7</title>
<path fill="none" stroke="#64748b" stroke-width="1.1" d="M344.62,-295.58C359.05,-281.31 379.14,-261.43 394.65,-246.09"/>
<polygon fill="#64748b" stroke="#64748b" stroke-width="1.1" points="396.47,-247.74 399.72,-241.08 393.02,-244.26 396.47,-247.74"/>
</g>
<!-- p1_5 -->
<g id="node10" class="node">
<title>p1_5</title>
<g id="a_node10"><a xlink:href="material3_roadmap.md#p1-5" xlink:title="Implement the shared presentation&#45;pin host" target="_top">
<path fill="#ffffff" stroke="#16a34a" stroke-width="2.2" d="M340,-390C340,-390 310,-390 310,-390 304,-390 298,-384 298,-378 298,-378 298,-366 298,-366 298,-360 304,-354 310,-354 310,-354 340,-354 340,-354 346,-354 352,-360 352,-366 352,-366 352,-378 352,-378 352,-384 346,-390 340,-390"/>
<text text-anchor="middle" x="325" y="-369.5" font-family="DejaVu Sans" font-size="10.00" fill="#334155">P1.5</text>
</a>
</g>
</g>
<!-- p1_5&#45;&gt;p1_6 -->
<g id="edge21" class="edge">
<title>p1_5&#45;&gt;p1_6</title>
<path fill="none" stroke="#64748b" stroke-width="1.1" d="M352.12,-372C362.22,-372 373.9,-372 384.6,-372"/>
<polygon fill="#64748b" stroke="#64748b" stroke-width="1.1" points="384.82,-374.45 391.82,-372 384.82,-369.55 384.82,-374.45"/>
</g>
<!-- p1_7 -->
<g id="node12" class="node">
<title>p1_7</title>
<g id="a_node12"><a xlink:href="material3_roadmap.md#p1-7" xlink:title="Implement Material 3 menus" target="_top">
<path fill="#ffffff" stroke="#eab308" stroke-width="2.2" d="M528,-376C528,-376 498,-376 498,-376 492,-376 486,-370 486,-364 486,-364 486,-352 486,-352 486,-346 492,-340 498,-340 498,-340 528,-340 528,-340 534,-340 540,-346 540,-352 540,-352 540,-364 540,-364 540,-370 534,-376 528,-376"/>
<text text-anchor="middle" x="513" y="-355.5" font-family="DejaVu Sans" font-size="10.00" fill="#334155">P1.7</text>
</a>
</g>
</g>
<!-- p1_6&#45;&gt;p1_7 -->
<g id="edge22" class="edge">
<title>p1_6&#45;&gt;p1_7</title>
<path fill="none" stroke="#64748b" stroke-width="1.1" d="M446.12,-368.03C456.22,-366.49 467.9,-364.71 478.6,-363.08"/>
<polygon fill="#64748b" stroke="#64748b" stroke-width="1.1" points="479.27,-365.46 485.82,-361.98 478.53,-360.62 479.27,-365.46"/>
</g>
<!-- p1_11 -->
<g id="node16" class="node">
<title>p1_11</title>
<g id="a_node16"><a xlink:href="material3_roadmap.md#p1-11" xlink:title="Integrate the compact settings shell" target="_top">
<path fill="#ffffff" stroke="#eab308" stroke-width="2.2" d="M622,-349C622,-349 592,-349 592,-349 586,-349 580,-343 580,-337 580,-337 580,-325 580,-325 580,-319 586,-313 592,-313 592,-313 622,-313 622,-313 628,-313 634,-319 634,-325 634,-325 634,-337 634,-337 634,-343 628,-349 622,-349"/>
<text text-anchor="middle" x="607" y="-328.5" font-family="DejaVu Sans" font-size="10.00" fill="#334155">P1.11</text>
</a>
</g>
</g>
<!-- p1_7&#45;&gt;p1_11 -->
<g id="edge23" class="edge">
<title>p1_7&#45;&gt;p1_11</title>
<path fill="none" stroke="#64748b" stroke-width="1.1" d="M540.12,-350.34C550.31,-347.34 562.13,-343.88 572.91,-340.71"/>
<polygon fill="#64748b" stroke="#64748b" stroke-width="1.1" points="573.79,-343.01 579.82,-338.68 572.41,-338.3 573.79,-343.01"/>
</g>
<!-- p1_8&#45;&gt;p1_11 -->
<g id="edge24" class="edge">
<title>p1_8&#45;&gt;p1_11</title>
<path fill="none" stroke="#64748b" stroke-width="1.1" d="M537.24,-393.94C540.88,-391 544.57,-387.95 548,-385 559.46,-375.14 571.76,-363.8 582.08,-354.07"/>
<polygon fill="#64748b" stroke="#64748b" stroke-width="1.1" points="583.88,-355.73 587.27,-349.14 580.51,-352.18 583.88,-355.73"/>
</g>
<!-- p1_10 -->
<g id="node15" class="node">
<title>p1_10</title>
<g id="a_node15"><a xlink:href="material3_roadmap.md#p1-10" xlink:title="Implement snackbar widget, presenter, and queue" target="_top">
<path fill="#ffffff" stroke="#eab308" stroke-width="2.2" d="M528,-322C528,-322 498,-322 498,-322 492,-322 486,-316 486,-310 486,-310 486,-298 486,-298 486,-292 492,-286 498,-286 498,-286 528,-286 528,-286 534,-286 540,-292 540,-298 540,-298 540,-310 540,-310 540,-316 534,-322 528,-322"/>
<text text-anchor="middle" x="513" y="-301.5" font-family="DejaVu Sans" font-size="10.00" fill="#334155">P1.10</text>
</a>
</g>
</g>
<!-- p1_9&#45;&gt;p1_10 -->
<g id="edge25" class="edge">
<title>p1_9&#45;&gt;p1_10</title>
<path fill="none" stroke="#64748b" stroke-width="1.1" d="M446.12,-311.16C456.22,-310.06 467.9,-308.79 478.6,-307.63"/>
<polygon fill="#64748b" stroke="#64748b" stroke-width="1.1" points="479.12,-310.04 485.82,-306.85 478.59,-305.17 479.12,-310.04"/>
</g>
<!-- p1_10&#45;&gt;p1_11 -->
<g id="edge26" class="edge">
<title>p1_10&#45;&gt;p1_11</title>
<path fill="none" stroke="#64748b" stroke-width="1.1" d="M540.12,-311.66C550.31,-314.66 562.13,-318.12 572.91,-321.29"/>
<polygon fill="#64748b" stroke="#64748b" stroke-width="1.1" points="572.41,-323.7 579.82,-323.32 573.79,-318.99 572.41,-323.7"/>
</g>
<!-- p2_4 -->
<g id="node20" class="node">
<title>p2_4</title>
<g id="a_node20"><a xlink:href="material3_roadmap.md#p2-4" xlink:title="Implement the Material 3 Wi&#45;Fi configuration flow" target="_top">
<path fill="#ffffff" stroke="#eab308" stroke-width="2.2" d="M716,-106C716,-106 686,-106 686,-106 680,-106 674,-100 674,-94 674,-94 674,-82 674,-82 674,-76 680,-70 686,-70 686,-70 716,-70 716,-70 722,-70 728,-76 728,-82 728,-82 728,-94 728,-94 728,-100 722,-106 716,-106"/>
<text text-anchor="middle" x="701" y="-85.5" font-family="DejaVu Sans" font-size="10.00" fill="#334155">P2.4</text>
</a>
</g>
</g>
<!-- p1_11&#45;&gt;p2_4 -->
<g id="edge27" class="edge">
<title>p1_11&#45;&gt;p2_4</title>
<path fill="none" stroke="#64748b" stroke-width="1.1" d="M614.91,-312.74C631.21,-269.71 672.01,-161.92 690.56,-112.93"/>
<polygon fill="#64748b" stroke="#64748b" stroke-width="1.1" points="692.94,-113.56 693.13,-106.14 688.36,-111.82 692.94,-113.56"/>
</g>
<!-- p2_1&#45;&gt;p2_4 -->
<g id="edge28" class="edge">
<title>p2_1&#45;&gt;p2_4</title>
<path fill="none" stroke="#64748b" stroke-width="1.1" d="M164.17,-35.84C200.15,-38.2 266.95,-42 324,-42 324,-42 324,-42 514,-42 571.51,-42 586.91,-44.47 642,-61 650.39,-63.52 659.12,-67.05 667.19,-70.73"/>
<polygon fill="#64748b" stroke="#64748b" stroke-width="1.1" points="666.4,-73.07 673.78,-73.84 668.49,-68.64 666.4,-73.07"/>
</g>
<!-- p3_5 -->
<g id="node26" class="node">
<title>p3_5</title>
<g id="a_node26"><a xlink:href="material3_roadmap.md#p3-5" xlink:title="Design multiline editing and composition" target="_top">
<path fill="#ffffff" stroke="#eab308" stroke-width="2.2" d="M246,-187C246,-187 216,-187 216,-187 210,-187 204,-181 204,-175 204,-175 204,-163 204,-163 204,-157 210,-151 216,-151 216,-151 246,-151 246,-151 252,-151 258,-157 258,-163 258,-163 258,-175 258,-175 258,-181 252,-187 246,-187"/>
<text text-anchor="middle" x="231" y="-166.5" font-family="DejaVu Sans" font-size="10.00" fill="#334155">P3.5</text>
</a>
</g>
</g>
<!-- p2_1&#45;&gt;p3_5 -->
<g id="edge29" class="edge">
<title>p2_1&#45;&gt;p3_5</title>
<path fill="none" stroke="#64748b" stroke-width="1.1" d="M156.93,-52.26C159.45,-55.07 161.88,-58.03 164,-61 186.64,-92.7 182.2,-106.71 204,-139 205.43,-141.12 207,-143.26 208.63,-145.37"/>
<polygon fill="#64748b" stroke="#64748b" stroke-width="1.1" points="206.74,-146.93 213.04,-150.83 210.55,-143.85 206.74,-146.93"/>
</g>
<!-- p2_3 -->
<g id="node19" class="node">
<title>p2_3</title>
<g id="a_node19"><a xlink:href="material3_roadmap.md#p2-3" xlink:title="Implement progress indicators" target="_top">
<path fill="#ffffff" stroke="#eab308" stroke-width="2.2" d="M622,-106C622,-106 592,-106 592,-106 586,-106 580,-100 580,-94 580,-94 580,-82 580,-82 580,-76 586,-70 592,-70 592,-70 622,-70 622,-70 628,-70 634,-76 634,-82 634,-82 634,-94 634,-94 634,-100 628,-106 622,-106"/>
<text text-anchor="middle" x="607" y="-85.5" font-family="DejaVu Sans" font-size="10.00" fill="#334155">P2.3</text>
</a>
</g>
</g>
<!-- p2_2&#45;&gt;p2_3 -->
<g id="edge30" class="edge">
<title>p2_2&#45;&gt;p2_3</title>
<path fill="none" stroke="#64748b" stroke-width="1.1" d="M164.18,-88C200.19,-88 267.01,-88 324,-88 324,-88 324,-88 420,-88 473.43,-88 535.5,-88 572.72,-88"/>
<polygon fill="#64748b" stroke="#64748b" stroke-width="1.1" points="572.82,-90.45 579.82,-88 572.82,-85.55 572.82,-90.45"/>
</g>
<!-- p2_3&#45;&gt;p2_4 -->
<g id="edge31" class="edge">
<title>p2_3&#45;&gt;p2_4</title>
<path fill="none" stroke="#64748b" stroke-width="1.1" d="M634.12,-88C644.22,-88 655.9,-88 666.6,-88"/>
<polygon fill="#64748b" stroke="#64748b" stroke-width="1.1" points="666.82,-90.45 673.82,-88 666.82,-85.55 666.82,-90.45"/>
</g>
<!-- p2_5 -->
<g id="node21" class="node">
<title>p2_5</title>
<g id="a_node21"><a xlink:href="material3_roadmap.md#p2-5" xlink:title="Verify the configuration flow on target" target="_top">
<path fill="#ffffff" stroke="#eab308" stroke-width="2.2" d="M810,-106C810,-106 780,-106 780,-106 774,-106 768,-100 768,-94 768,-94 768,-82 768,-82 768,-76 774,-70 780,-70 780,-70 810,-70 810,-70 816,-70 822,-76 822,-82 822,-82 822,-94 822,-94 822,-100 816,-106 810,-106"/>
<text text-anchor="middle" x="795" y="-85.5" font-family="DejaVu Sans" font-size="10.00" fill="#334155">P2.5</text>
</a>
</g>
</g>
<!-- p2_4&#45;&gt;p2_5 -->
<g id="edge32" class="edge">
<title>p2_4&#45;&gt;p2_5</title>
<path fill="none" stroke="#64748b" stroke-width="1.1" d="M728.12,-88C738.22,-88 749.9,-88 760.6,-88"/>
<polygon fill="#64748b" stroke="#64748b" stroke-width="1.1" points="760.82,-90.45 767.82,-88 760.82,-85.55 760.82,-90.45"/>
</g>
<!-- p3_2 -->
<g id="node23" class="node">
<title>p3_2</title>
<g id="a_node23"><a xlink:href="material3_roadmap.md#p3-2" xlink:title="Reconcile existing control implementations with P3.1" target="_top">
<path fill="#ffffff" stroke="#eab308" stroke-width="2.2" d="M246,-241C246,-241 216,-241 216,-241 210,-241 204,-235 204,-229 204,-229 204,-217 204,-217 204,-211 210,-205 216,-205 216,-205 246,-205 246,-205 252,-205 258,-211 258,-217 258,-217 258,-229 258,-229 258,-235 252,-241 246,-241"/>
<text text-anchor="middle" x="231" y="-220.5" font-family="DejaVu Sans" font-size="10.00" fill="#334155">P3.2</text>
</a>
</g>
</g>
<!-- p3_1&#45;&gt;p3_2 -->
<g id="edge33" class="edge">
<title>p3_1&#45;&gt;p3_2</title>
<path fill="none" stroke="#64748b" stroke-width="1.1" d="M164.12,-223C174.22,-223 185.9,-223 196.6,-223"/>
<polygon fill="#64748b" stroke="#64748b" stroke-width="1.1" points="196.82,-225.45 203.82,-223 196.82,-220.55 196.82,-225.45"/>
</g>
<!-- p3_4 -->
<g id="node25" class="node">
<title>p3_4</title>
<g id="a_node25"><a xlink:href="material3_roadmap.md#p3-4" xlink:title="Implement adaptive navigation" target="_top">
<path fill="#ffffff" stroke="#eab308" stroke-width="2.2" d="M528,-187C528,-187 498,-187 498,-187 492,-187 486,-181 486,-175 486,-175 486,-163 486,-163 486,-157 492,-151 498,-151 498,-151 528,-151 528,-151 534,-151 540,-157 540,-163 540,-163 540,-175 540,-175 540,-181 534,-187 528,-187"/>
<text text-anchor="middle" x="513" y="-166.5" font-family="DejaVu Sans" font-size="10.00" fill="#334155">P3.4</text>
</a>
</g>
</g>
<!-- p3_3&#45;&gt;p3_4 -->
<g id="edge34" class="edge">
<title>p3_3&#45;&gt;p3_4</title>
<path fill="none" stroke="#64748b" stroke-width="1.1" d="M446.12,-169C456.22,-169 467.9,-169 478.6,-169"/>
<polygon fill="#64748b" stroke="#64748b" stroke-width="1.1" points="478.82,-171.45 485.82,-169 478.82,-166.55 478.82,-171.45"/>
</g>
<!-- p3_6 -->
<g id="node27" class="node">
<title>p3_6</title>
<g id="a_node27"><a xlink:href="material3_roadmap.md#p3-6" xlink:title="Implement multiline Material 3 text fields" target="_top">
<path fill="#ffffff" stroke="#eab308" stroke-width="2.2" d="M340,-187C340,-187 310,-187 310,-187 304,-187 298,-181 298,-175 298,-175 298,-163 298,-163 298,-157 304,-151 310,-151 310,-151 340,-151 340,-151 346,-151 352,-157 352,-163 352,-163 352,-175 352,-175 352,-181 346,-187 340,-187"/>
<text text-anchor="middle" x="325" y="-166.5" font-family="DejaVu Sans" font-size="10.00" fill="#334155">P3.6</text>
</a>
</g>
</g>
<!-- p3_5&#45;&gt;p3_6 -->
<g id="edge35" class="edge">
<title>p3_5&#45;&gt;p3_6</title>
<path fill="none" stroke="#64748b" stroke-width="1.1" d="M258.12,-169C268.22,-169 279.9,-169 290.6,-169"/>
<polygon fill="#64748b" stroke="#64748b" stroke-width="1.1" points="290.82,-171.45 297.82,-169 290.82,-166.55 290.82,-171.45"/>
</g>
</g>
</svg>
