<?xml version="1.0" encoding="UTF-8" standalone="no"?>
<!DOCTYPE svg PUBLIC "-//W3C//DTD SVG 1.1//EN"
 "http://www.w3.org/Graphics/SVG/1.1/DTD/svg11.dtd">
<!-- Generated by graphviz version 2.42.4 (0)
 -->
<!-- Title: material3_roadmap_dependencies Pages: 1 -->
<svg width="867pt" height="723pt"
 viewBox="0.00 0.00 866.80 722.80" xmlns="http://www.w3.org/2000/svg" xmlns:xlink="http://www.w3.org/1999/xlink">
<g id="graph0" class="graph" transform="scale(1 1) rotate(0) translate(14.4 708.4)">
<title>material3_roadmap_dependencies</title>
<polygon fill="#ffffff" stroke="transparent" points="-14.4,14.4 -14.4,-708.4 852.4,-708.4 852.4,14.4 -14.4,14.4"/>
<text text-anchor="middle" x="419" y="-680.4" font-family="DejaVu Sans" font-size="12.00">Roo Windows Material 3 delivery dependencies</text>
<g id="clust1" class="cluster">
<title>cluster_phase0</title>
<path fill="#ffffff" stroke="#cbd5e1" d="M20,-487C20,-487 348,-487 348,-487 354,-487 360,-493 360,-499 360,-499 360,-602 360,-602 360,-608 354,-614 348,-614 348,-614 20,-614 20,-614 14,-614 8,-608 8,-602 8,-602 8,-499 8,-499 8,-493 14,-487 20,-487"/>
<text text-anchor="middle" x="184" y="-600.4" font-family="DejaVu Sans" font-size="12.00">Phase 0 — Framework baseline</text>
</g>
<g id="clust2" class="cluster">
<title>cluster_phase1</title>
<path fill="#ffffff" stroke="#cbd5e1" d="M114,-278C114,-278 630,-278 630,-278 636,-278 642,-284 642,-290 642,-290 642,-467 642,-467 642,-473 636,-479 630,-479 630,-479 114,-479 114,-479 108,-479 102,-473 102,-467 102,-467 102,-290 102,-290 102,-284 108,-278 114,-278"/>
<text text-anchor="middle" x="372" y="-465.4" font-family="DejaVu Sans" font-size="12.00">Phase 1 — Compact application shell</text>
</g>
<g id="clust3" class="cluster">
<title>cluster_phase2</title>
<path fill="#ffffff" stroke="#cbd5e1" d="M114,-8C114,-8 818,-8 818,-8 824,-8 830,-14 830,-20 830,-20 830,-123 830,-123 830,-129 824,-135 818,-135 818,-135 114,-135 114,-135 108,-135 102,-129 102,-123 102,-123 102,-20 102,-20 102,-14 108,-8 114,-8"/>
<text text-anchor="middle" x="466" y="-121.4" font-family="DejaVu Sans" font-size="12.00">Phase 2 — Complete configuration flow</text>
</g>
<g id="clust4" class="cluster">
<title>cluster_phase3</title>
<path fill="#ffffff" stroke="#cbd5e1" d="M114,-143C114,-143 536,-143 536,-143 542,-143 548,-149 548,-155 548,-155 548,-258 548,-258 548,-264 542,-270 536,-270 536,-270 114,-270 114,-270 108,-270 102,-264 102,-258 102,-258 102,-155 102,-155 102,-149 108,-143 114,-143"/>
<text text-anchor="middle" x="325" y="-256.4" font-family="DejaVu Sans" font-size="12.00">Phase 3 — Consolidation and adaptive breadth</text>
</g>
<!-- p0_1 -->
<g id="node1" class="node">
<title>p0_1</title>
<g id="a_node1"><a xlink:href="material3_roadmap.md#p0-1" xlink:title="Theme ownership split" target="_top">
<path fill="#ffffff" stroke="#16a34a" stroke-width="2.2" d="M58,-531C58,-531 28,-531 28,-531 22,-531 16,-525 16,-519 16,-519 16,-507 16,-507 16,-501 22,-495 28,-495 28,-495 58,-495 58,-495 64,-495 70,-501 70,-507 70,-507 70,-519 70,-519 70,-525 64,-531 58,-531"/>
<text text-anchor="middle" x="43" y="-510.5" font-family="DejaVu Sans" font-size="10.00" fill="#334155">P0.1</text>
</a>
</g>
</g>
<!-- p0_2 -->
<g id="node2" class="node">
<title>p0_2</title>
<g id="a_node2"><a xlink:href="material3_roadmap.md#p0-2" xlink:title="Supported&#45;target baseline for the theme split" target="_top">
<path fill="#ffffff" stroke="#cbd5e1" stroke-width="2.2" d="M152,-531C152,-531 122,-531 122,-531 116,-531 110,-525 110,-519 110,-519 110,-507 110,-507 110,-501 116,-495 122,-495 122,-495 152,-495 152,-495 158,-495 164,-501 164,-507 164,-507 164,-519 164,-519 164,-525 158,-531 152,-531"/>
<text text-anchor="middle" x="137" y="-510.5" font-family="DejaVu Sans" font-size="10.00" fill="#334155">P0.2</text>
</a>
</g>
</g>
<!-- p0_1&#45;&gt;p0_2 -->
<g id="edge1" class="edge">
<title>p0_1&#45;&gt;p0_2</title>
<path fill="none" stroke="#64748b" stroke-width="1.1" d="M70.12,-513C80.22,-513 91.9,-513 102.6,-513"/>
<polygon fill="#64748b" stroke="#64748b" stroke-width="1.1" points="102.82,-515.45 109.82,-513 102.82,-510.55 102.82,-515.45"/>
</g>
<!-- p1_1 -->
<g id="node6" class="node">
<title>p1_1</title>
<g id="a_node6"><a xlink:href="material3_roadmap.md#p1-1" xlink:title="Finish app&#45;bar component verification" target="_top">
<path fill="#ffffff" stroke="#0284c7" stroke-width="2.2" d="M152,-396C152,-396 122,-396 122,-396 116,-396 110,-390 110,-384 110,-384 110,-372 110,-372 110,-366 116,-360 122,-360 122,-360 152,-360 152,-360 158,-360 164,-366 164,-372 164,-372 164,-384 164,-384 164,-390 158,-396 152,-396"/>
<text text-anchor="middle" x="137" y="-375.5" font-family="DejaVu Sans" font-size="10.00" fill="#334155">P1.1</text>
</a>
</g>
</g>
<!-- p0_1&#45;&gt;p1_1 -->
<g id="edge4" class="edge">
<title>p0_1&#45;&gt;p1_1</title>
<path fill="none" stroke="#64748b" stroke-width="1.1" d="M51.05,-494.82C60.41,-472.18 78.52,-433.09 102,-405 103.14,-403.63 104.36,-402.29 105.64,-400.98"/>
<polygon fill="#64748b" stroke="#64748b" stroke-width="1.1" points="107.41,-402.68 110.78,-396.07 104.02,-399.13 107.41,-402.68"/>
</g>
<!-- p2_2 -->
<g id="node18" class="node">
<title>p2_2</title>
<g id="a_node18"><a xlink:href="material3_roadmap.md#p2-2" xlink:title="Design progress indicators" target="_top">
<path fill="#ffffff" stroke="#cbd5e1" stroke-width="2.2" d="M152,-52C152,-52 122,-52 122,-52 116,-52 110,-46 110,-40 110,-40 110,-28 110,-28 110,-22 116,-16 122,-16 122,-16 152,-16 152,-16 158,-16 164,-22 164,-28 164,-28 164,-40 164,-40 164,-46 158,-52 152,-52"/>
<text text-anchor="middle" x="137" y="-31.5" font-family="DejaVu Sans" font-size="10.00" fill="#334155">P2.2</text>
</a>
</g>
</g>
<!-- p0_1&#45;&gt;p2_2 -->
<g id="edge26" class="edge">
<title>p0_1&#45;&gt;p2_2</title>
<path fill="none" stroke="#64748b" stroke-width="1.1" d="M44.52,-495C46.95,-420.59 58.9,-137.4 102,-61 102.91,-59.39 103.95,-57.84 105.1,-56.36"/>
<polygon fill="#64748b" stroke="#64748b" stroke-width="1.1" points="107.1,-57.8 109.97,-50.96 103.46,-54.52 107.1,-57.8"/>
</g>
<!-- p3_1 -->
<g id="node22" class="node">
<title>p3_1</title>
<g id="a_node22"><a xlink:href="material3_roadmap.md#p3-1" xlink:title="Specify the existing card, checkbox, radio&#45;button, and switch families" target="_top">
<path fill="#ffffff" stroke="#cbd5e1" stroke-width="2.2" d="M152,-241C152,-241 122,-241 122,-241 116,-241 110,-235 110,-229 110,-229 110,-217 110,-217 110,-211 116,-205 122,-205 122,-205 152,-205 152,-205 158,-205 164,-211 164,-217 164,-217 164,-229 164,-229 164,-235 158,-241 152,-241"/>
<text text-anchor="middle" x="137" y="-220.5" font-family="DejaVu Sans" font-size="10.00" fill="#334155">P3.1</text>
</a>
</g>
</g>
<!-- p0_1&#45;&gt;p3_1 -->
<g id="edge32" class="edge">
<title>p0_1&#45;&gt;p3_1</title>
<path fill="none" stroke="#64748b" stroke-width="1.1" d="M46.19,-494.92C51.6,-454.09 67.72,-352.21 102,-274 106.02,-264.84 111.67,-255.52 117.21,-247.41"/>
<polygon fill="#64748b" stroke="#64748b" stroke-width="1.1" points="119.38,-248.59 121.41,-241.46 115.37,-245.77 119.38,-248.59"/>
</g>
<!-- p0_3 -->
<g id="node3" class="node">
<title>p0_3</title>
<g id="a_node3"><a xlink:href="material3_roadmap.md#p0-3" xlink:title="Keyboard/focus framework" target="_top">
<path fill="#ffffff" stroke="#16a34a" stroke-width="2.2" d="M58,-585C58,-585 28,-585 28,-585 22,-585 16,-579 16,-573 16,-573 16,-561 16,-561 16,-555 22,-549 28,-549 28,-549 58,-549 58,-549 64,-549 70,-555 70,-561 70,-561 70,-573 70,-573 70,-579 64,-585 58,-585"/>
<text text-anchor="middle" x="43" y="-564.5" font-family="DejaVu Sans" font-size="10.00" fill="#334155">P0.3</text>
</a>
</g>
</g>
<!-- p0_4 -->
<g id="node4" class="node">
<title>p0_4</title>
<g id="a_node4"><a xlink:href="material3_roadmap.md#p0-4" xlink:title="Semantic Back/Escape routing" target="_top">
<path fill="#ffffff" stroke="#16a34a" stroke-width="2.2" d="M246,-579C246,-579 216,-579 216,-579 210,-579 204,-573 204,-567 204,-567 204,-555 204,-555 204,-549 210,-543 216,-543 216,-543 246,-543 246,-543 252,-543 258,-549 258,-555 258,-555 258,-567 258,-567 258,-573 252,-579 246,-579"/>
<text text-anchor="middle" x="231" y="-558.5" font-family="DejaVu Sans" font-size="10.00" fill="#334155">P0.4</text>
</a>
</g>
</g>
<!-- p0_3&#45;&gt;p0_4 -->
<g id="edge2" class="edge">
<title>p0_3&#45;&gt;p0_4</title>
<path fill="none" stroke="#64748b" stroke-width="1.1" d="M70.25,-566.15C103.35,-565.09 160.28,-563.25 196.48,-562.08"/>
<polygon fill="#64748b" stroke="#64748b" stroke-width="1.1" points="196.96,-564.52 203.88,-561.84 196.8,-559.62 196.96,-564.52"/>
</g>
<!-- p0_3&#45;&gt;p1_1 -->
<g id="edge5" class="edge">
<title>p0_3&#45;&gt;p1_1</title>
<path fill="none" stroke="#64748b" stroke-width="1.1" d="M63.87,-548.86C66.19,-546.07 68.32,-543.08 70,-540 99.54,-485.88 68.92,-457.04 102,-405 102.96,-403.5 104.02,-402.04 105.18,-400.64"/>
<polygon fill="#64748b" stroke="#64748b" stroke-width="1.1" points="107,-402.28 109.98,-395.49 103.41,-398.94 107,-402.28"/>
</g>
<!-- p1_2 -->
<g id="node7" class="node">
<title>p1_2</title>
<g id="a_node7"><a xlink:href="material3_roadmap.md#p1-2" xlink:title="Amend the navigation&#45;bar design for keyboard operation" target="_top">
<path fill="#ffffff" stroke="#16a34a" stroke-width="2.2" d="M152,-450C152,-450 122,-450 122,-450 116,-450 110,-444 110,-438 110,-438 110,-426 110,-426 110,-420 116,-414 122,-414 122,-414 152,-414 152,-414 158,-414 164,-420 164,-426 164,-426 164,-438 164,-438 164,-444 158,-450 152,-450"/>
<text text-anchor="middle" x="137" y="-429.5" font-family="DejaVu Sans" font-size="10.00" fill="#334155">P1.2</text>
</a>
</g>
</g>
<!-- p0_3&#45;&gt;p1_2 -->
<g id="edge6" class="edge">
<title>p0_3&#45;&gt;p1_2</title>
<path fill="none" stroke="#64748b" stroke-width="1.1" d="M62.56,-548.97C65.18,-546.07 67.75,-543.03 70,-540 87.33,-516.68 86.82,-507.77 102,-483 107.41,-474.18 113.61,-464.7 119.22,-456.34"/>
<polygon fill="#64748b" stroke="#64748b" stroke-width="1.1" points="121.49,-457.36 123.38,-450.19 117.43,-454.62 121.49,-457.36"/>
</g>
<!-- p1_6 -->
<g id="node11" class="node">
<title>p1_6</title>
<g id="a_node11"><a xlink:href="material3_roadmap.md#p1-6" xlink:title="Reconcile menu ownership and input design" target="_top">
<path fill="#ffffff" stroke="#eab308" stroke-width="2.2" d="M434,-396C434,-396 404,-396 404,-396 398,-396 392,-390 392,-384 392,-384 392,-372 392,-372 392,-366 398,-360 404,-360 404,-360 434,-360 434,-360 440,-360 446,-366 446,-372 446,-372 446,-384 446,-384 446,-390 440,-396 434,-396"/>
<text text-anchor="middle" x="419" y="-375.5" font-family="DejaVu Sans" font-size="10.00" fill="#334155">P1.6</text>
</a>
</g>
</g>
<!-- p0_3&#45;&gt;p1_6 -->
<g id="edge10" class="edge">
<title>p0_3&#45;&gt;p1_6</title>
<path fill="none" stroke="#64748b" stroke-width="1.1" d="M70.33,-577.6C131.21,-600.17 282.47,-644.8 360,-566 411.17,-514 358.22,-469.66 392,-405 392.56,-403.93 393.17,-402.87 393.83,-401.83"/>
<polygon fill="#64748b" stroke="#64748b" stroke-width="1.1" points="395.88,-403.19 398.02,-396.08 391.92,-400.3 395.88,-403.19"/>
</g>
<!-- p1_10 -->
<g id="node15" class="node">
<title>p1_10</title>
<g id="a_node15"><a xlink:href="material3_roadmap.md#p1-10" xlink:title="Implement snackbar widget, presenter, and queue" target="_top">
<path fill="#ffffff" stroke="#eab308" stroke-width="2.2" d="M528,-433C528,-433 498,-433 498,-433 492,-433 486,-427 486,-421 486,-421 486,-409 486,-409 486,-403 492,-397 498,-397 498,-397 528,-397 528,-397 534,-397 540,-403 540,-409 540,-409 540,-421 540,-421 540,-427 534,-433 528,-433"/>
<text text-anchor="middle" x="513" y="-412.5" font-family="DejaVu Sans" font-size="10.00" fill="#334155">P1.10</text>
</a>
</g>
</g>
<!-- p0_3&#45;&gt;p1_10 -->
<g id="edge19" class="edge">
<title>p0_3&#45;&gt;p1_10</title>
<path fill="none" stroke="#64748b" stroke-width="1.1" d="M61.61,-585.46C92.57,-615.83 160.13,-673 230,-673 230,-673 230,-673 326,-673 440.05,-673 491.14,-505.06 506.63,-440.17"/>
<polygon fill="#64748b" stroke="#64748b" stroke-width="1.1" points="509.06,-440.51 508.26,-433.14 504.29,-439.41 509.06,-440.51"/>
</g>
<!-- p2_1 -->
<g id="node17" class="node">
<title>p2_1</title>
<g id="a_node17"><a xlink:href="material3_roadmap.md#p2-1" xlink:title="Implement single&#45;line Material 3 text fields" target="_top">
<path fill="#ffffff" stroke="#cbd5e1" stroke-width="2.2" d="M152,-106C152,-106 122,-106 122,-106 116,-106 110,-100 110,-94 110,-94 110,-82 110,-82 110,-76 116,-70 122,-70 122,-70 152,-70 152,-70 158,-70 164,-76 164,-82 164,-82 164,-94 164,-94 164,-100 158,-106 152,-106"/>
<text text-anchor="middle" x="137" y="-85.5" font-family="DejaVu Sans" font-size="10.00" fill="#334155">P2.1</text>
</a>
</g>
</g>
<!-- p0_3&#45;&gt;p2_1 -->
<g id="edge25" class="edge">
<title>p0_3&#45;&gt;p2_1</title>
<path fill="none" stroke="#64748b" stroke-width="1.1" d="M64.57,-548.77C66.71,-546.03 68.61,-543.09 70,-540 143.41,-376.98 43.42,-307.92 102,-139 105.28,-129.55 110.74,-120.16 116.33,-112.06"/>
<polygon fill="#64748b" stroke="#64748b" stroke-width="1.1" points="118.49,-113.25 120.6,-106.14 114.52,-110.38 118.49,-113.25"/>
</g>
<!-- p0_3&#45;&gt;p3_1 -->
<g id="edge33" class="edge">
<title>p0_3&#45;&gt;p3_1</title>
<path fill="none" stroke="#64748b" stroke-width="1.1" d="M64.45,-548.71C66.61,-545.99 68.55,-543.06 70,-540 121.06,-432.43 60.74,-385.7 102,-274 105.47,-264.61 110.97,-255.24 116.56,-247.14"/>
<polygon fill="#64748b" stroke="#64748b" stroke-width="1.1" points="118.72,-248.33 120.81,-241.21 114.74,-245.48 118.72,-248.33"/>
</g>
<!-- p0_5 -->
<g id="node5" class="node">
<title>p0_5</title>
<g id="a_node5"><a xlink:href="material3_roadmap.md#p0-5" xlink:title="Interactive&#45;transient slot and dialog lifetime migration" target="_top">
<path fill="#ffffff" stroke="#16a34a" stroke-width="2.2" d="M340,-531C340,-531 310,-531 310,-531 304,-531 298,-525 298,-519 298,-519 298,-507 298,-507 298,-501 304,-495 310,-495 310,-495 340,-495 340,-495 346,-495 352,-501 352,-507 352,-507 352,-519 352,-519 352,-525 346,-531 340,-531"/>
<text text-anchor="middle" x="325" y="-510.5" font-family="DejaVu Sans" font-size="10.00" fill="#334155">P0.5</text>
</a>
</g>
</g>
<!-- p0_4&#45;&gt;p0_5 -->
<g id="edge3" class="edge">
<title>p0_4&#45;&gt;p0_5</title>
<path fill="none" stroke="#64748b" stroke-width="1.1" d="M258.12,-547.37C268.51,-541.95 280.58,-535.66 291.52,-529.94"/>
<polygon fill="#64748b" stroke="#64748b" stroke-width="1.1" points="292.74,-532.07 297.82,-526.66 290.48,-527.73 292.74,-532.07"/>
</g>
<!-- p0_4&#45;&gt;p1_6 -->
<g id="edge11" class="edge">
<title>p0_4&#45;&gt;p1_6</title>
<path fill="none" stroke="#64748b" stroke-width="1.1" d="M258.2,-564.49C286.95,-566.75 332.66,-565.49 360,-540 405.1,-497.95 362.46,-459.12 392,-405 392.58,-403.94 393.21,-402.89 393.88,-401.86"/>
<polygon fill="#64748b" stroke="#64748b" stroke-width="1.1" points="395.92,-403.22 398.13,-396.14 391.99,-400.3 395.92,-403.22"/>
</g>
<!-- p1_8 -->
<g id="node13" class="node">
<title>p1_8</title>
<g id="a_node13"><a xlink:href="material3_roadmap.md#p1-8" xlink:title="Implement basic Material 3 dialogs" target="_top">
<path fill="#ffffff" stroke="#cbd5e1" stroke-width="2.2" d="M434,-450C434,-450 404,-450 404,-450 398,-450 392,-444 392,-438 392,-438 392,-426 392,-426 392,-420 398,-414 404,-414 404,-414 434,-414 434,-414 440,-414 446,-420 446,-426 446,-426 446,-438 446,-438 446,-444 440,-450 434,-450"/>
<text text-anchor="middle" x="419" y="-429.5" font-family="DejaVu Sans" font-size="10.00" fill="#334155">P1.8</text>
</a>
</g>
</g>
<!-- p0_4&#45;&gt;p1_8 -->
<g id="edge15" class="edge">
<title>p0_4&#45;&gt;p1_8</title>
<path fill="none" stroke="#64748b" stroke-width="1.1" d="M258.18,-572.52C285.88,-582.78 329.68,-593.31 360,-573 398.64,-547.11 411.56,-490.34 415.87,-457.27"/>
<polygon fill="#64748b" stroke="#64748b" stroke-width="1.1" points="418.31,-457.44 416.7,-450.2 413.45,-456.86 418.31,-457.44"/>
</g>
<!-- p0_5&#45;&gt;p1_6 -->
<g id="edge12" class="edge">
<title>p0_5&#45;&gt;p1_6</title>
<path fill="none" stroke="#64748b" stroke-width="1.1" d="M349.41,-494.95C353.27,-491.28 356.99,-487.23 360,-483 381.73,-452.47 371.53,-436.39 392,-405 392.75,-403.86 393.55,-402.72 394.38,-401.59"/>
<polygon fill="#64748b" stroke="#64748b" stroke-width="1.1" points="396.33,-403.08 398.83,-396.1 392.52,-400 396.33,-403.08"/>
</g>
<!-- p0_5&#45;&gt;p1_8 -->
<g id="edge16" class="edge">
<title>p0_5&#45;&gt;p1_8</title>
<path fill="none" stroke="#64748b" stroke-width="1.1" d="M346.88,-494.62C360.26,-482.83 377.74,-467.44 392.02,-454.87"/>
<polygon fill="#64748b" stroke="#64748b" stroke-width="1.1" points="393.89,-456.49 397.52,-450.03 390.65,-452.82 393.89,-456.49"/>
</g>
<!-- p1_9 -->
<g id="node14" class="node">
<title>p1_9</title>
<g id="a_node14"><a xlink:href="material3_roadmap.md#p1-9" xlink:title="Reconcile snackbar queue ownership design" target="_top">
<path fill="#ffffff" stroke="#eab308" stroke-width="2.2" d="M434,-342C434,-342 404,-342 404,-342 398,-342 392,-336 392,-330 392,-330 392,-318 392,-318 392,-312 398,-306 404,-306 404,-306 434,-306 434,-306 440,-306 446,-312 446,-318 446,-318 446,-330 446,-330 446,-336 440,-342 434,-342"/>
<text text-anchor="middle" x="419" y="-321.5" font-family="DejaVu Sans" font-size="10.00" fill="#334155">P1.9</text>
</a>
</g>
</g>
<!-- p0_5&#45;&gt;p1_9 -->
<g id="edge17" class="edge">
<title>p0_5&#45;&gt;p1_9</title>
<path fill="none" stroke="#64748b" stroke-width="1.1" d="M350.3,-494.97C353.97,-491.35 357.4,-487.31 360,-483 391.18,-431.31 362.94,-403.91 392,-351 392.58,-349.94 393.22,-348.89 393.89,-347.86"/>
<polygon fill="#64748b" stroke="#64748b" stroke-width="1.1" points="395.93,-349.23 398.14,-342.15 392,-346.3 395.93,-349.23"/>
</g>
<!-- p3_7 -->
<g id="node28" class="node">
<title>p3_7</title>
<g id="a_node28"><a xlink:href="material3_roadmap.md#p3-7" xlink:title="Implement modal sheets and adopt transient lifetime" target="_top">
<path fill="#ffffff" stroke="#eab308" stroke-width="2.2" d="M434,-241C434,-241 404,-241 404,-241 398,-241 392,-235 392,-229 392,-229 392,-217 392,-217 392,-211 398,-205 404,-205 404,-205 434,-205 434,-205 440,-205 446,-211 446,-217 446,-217 446,-229 446,-229 446,-235 440,-241 434,-241"/>
<text text-anchor="middle" x="419" y="-220.5" font-family="DejaVu Sans" font-size="10.00" fill="#334155">P3.7</text>
</a>
</g>
</g>
<!-- p0_5&#45;&gt;p3_7 -->
<g id="edge39" class="edge">
<title>p0_5&#45;&gt;p3_7</title>
<path fill="none" stroke="#64748b" stroke-width="1.1" d="M350.95,-494.81C354.46,-491.25 357.66,-487.28 360,-483 405.04,-400.53 363.18,-363.44 392,-274 394.86,-265.13 399.11,-255.92 403.35,-247.8"/>
<polygon fill="#64748b" stroke="#64748b" stroke-width="1.1" points="405.71,-248.6 406.88,-241.28 401.39,-246.27 405.71,-248.6"/>
</g>
<!-- p1_4 -->
<g id="node9" class="node">
<title>p1_4</title>
<g id="a_node9"><a xlink:href="material3_roadmap.md#p1-4" xlink:title="Implement the compact LayoutScaffold slice" target="_top">
<path fill="#ffffff" stroke="#eab308" stroke-width="2.2" d="M340,-332C340,-332 310,-332 310,-332 304,-332 298,-326 298,-320 298,-320 298,-308 298,-308 298,-302 304,-296 310,-296 310,-296 340,-296 340,-296 346,-296 352,-302 352,-308 352,-308 352,-320 352,-320 352,-326 346,-332 340,-332"/>
<text text-anchor="middle" x="325" y="-311.5" font-family="DejaVu Sans" font-size="10.00" fill="#334155">P1.4</text>
</a>
</g>
</g>
<!-- p1_1&#45;&gt;p1_4 -->
<g id="edge8" class="edge">
<title>p1_1&#45;&gt;p1_4</title>
<path fill="none" stroke="#64748b" stroke-width="1.1" d="M164.25,-368.97C197.49,-357.53 254.76,-337.83 290.94,-325.38"/>
<polygon fill="#64748b" stroke="#64748b" stroke-width="1.1" points="292.06,-327.58 297.88,-322.99 290.46,-322.95 292.06,-327.58"/>
</g>
<!-- p1_3 -->
<g id="node8" class="node">
<title>p1_3</title>
<g id="a_node8"><a xlink:href="material3_roadmap.md#p1-3" xlink:title="Implement compact navigation bar" target="_top">
<path fill="#ffffff" stroke="#eab308" stroke-width="2.2" d="M246,-427C246,-427 216,-427 216,-427 210,-427 204,-421 204,-415 204,-415 204,-403 204,-403 204,-397 210,-391 216,-391 216,-391 246,-391 246,-391 252,-391 258,-397 258,-403 258,-403 258,-415 258,-415 258,-421 252,-427 246,-427"/>
<text text-anchor="middle" x="231" y="-406.5" font-family="DejaVu Sans" font-size="10.00" fill="#334155">P1.3</text>
</a>
</g>
</g>
<!-- p1_2&#45;&gt;p1_3 -->
<g id="edge7" class="edge">
<title>p1_2&#45;&gt;p1_3</title>
<path fill="none" stroke="#64748b" stroke-width="1.1" d="M164.12,-425.47C174.31,-422.92 186.13,-419.97 196.91,-417.27"/>
<polygon fill="#64748b" stroke="#64748b" stroke-width="1.1" points="197.62,-419.62 203.82,-415.55 196.43,-414.87 197.62,-419.62"/>
</g>
<!-- p1_3&#45;&gt;p1_4 -->
<g id="edge9" class="edge">
<title>p1_3&#45;&gt;p1_4</title>
<path fill="none" stroke="#64748b" stroke-width="1.1" d="M249.74,-390.68C264.38,-375.57 285.24,-354.02 301.13,-337.61"/>
<polygon fill="#64748b" stroke="#64748b" stroke-width="1.1" points="303.21,-338.99 306.32,-332.26 299.69,-335.58 303.21,-338.99"/>
</g>
<!-- p1_4&#45;&gt;p1_9 -->
<g id="edge18" class="edge">
<title>p1_4&#45;&gt;p1_9</title>
<path fill="none" stroke="#64748b" stroke-width="1.1" d="M352.12,-316.84C362.22,-317.94 373.9,-319.21 384.6,-320.37"/>
<polygon fill="#64748b" stroke="#64748b" stroke-width="1.1" points="384.59,-322.83 391.82,-321.15 385.12,-317.96 384.59,-322.83"/>
</g>
<!-- p1_11 -->
<g id="node16" class="node">
<title>p1_11</title>
<g id="a_node16"><a xlink:href="material3_roadmap.md#p1-11" xlink:title="Integrate the compact settings shell" target="_top">
<path fill="#ffffff" stroke="#eab308" stroke-width="2.2" d="M622,-359C622,-359 592,-359 592,-359 586,-359 580,-353 580,-347 580,-347 580,-335 580,-335 580,-329 586,-323 592,-323 592,-323 622,-323 622,-323 628,-323 634,-329 634,-335 634,-335 634,-347 634,-347 634,-353 628,-359 622,-359"/>
<text text-anchor="middle" x="607" y="-338.5" font-family="DejaVu Sans" font-size="10.00" fill="#334155">P1.11</text>
</a>
</g>
</g>
<!-- p1_4&#45;&gt;p1_11 -->
<g id="edge21" class="edge">
<title>p1_4&#45;&gt;p1_11</title>
<path fill="none" stroke="#64748b" stroke-width="1.1" d="M352.04,-305.68C364.07,-302.25 378.62,-298.7 392,-297 461.19,-288.23 481.38,-293.36 548,-314 556.37,-316.59 565.09,-320.15 573.15,-323.84"/>
<polygon fill="#64748b" stroke="#64748b" stroke-width="1.1" points="572.37,-326.18 579.75,-326.94 574.46,-321.74 572.37,-326.18"/>
</g>
<!-- p3_3 -->
<g id="node24" class="node">
<title>p3_3</title>
<g id="a_node24"><a xlink:href="material3_roadmap.md#p3-3" xlink:title="Design adaptive navigation orchestration" target="_top">
<path fill="#ffffff" stroke="#eab308" stroke-width="2.2" d="M434,-187C434,-187 404,-187 404,-187 398,-187 392,-181 392,-175 392,-175 392,-163 392,-163 392,-157 398,-151 404,-151 404,-151 434,-151 434,-151 440,-151 446,-157 446,-163 446,-163 446,-175 446,-175 446,-181 440,-187 434,-187"/>
<text text-anchor="middle" x="419" y="-166.5" font-family="DejaVu Sans" font-size="10.00" fill="#334155">P3.3</text>
</a>
</g>
</g>
<!-- p1_4&#45;&gt;p3_3 -->
<g id="edge35" class="edge">
<title>p1_4&#45;&gt;p3_3</title>
<path fill="none" stroke="#64748b" stroke-width="1.1" d="M343.56,-295.82C349.28,-289.28 355.36,-281.63 360,-274 379.49,-241.99 371.53,-227.39 392,-196 392.75,-194.86 393.55,-193.72 394.38,-192.59"/>
<polygon fill="#64748b" stroke="#64748b" stroke-width="1.1" points="396.33,-194.08 398.83,-187.1 392.52,-191 396.33,-194.08"/>
</g>
<!-- p1_4&#45;&gt;p3_7 -->
<g id="edge40" class="edge">
<title>p1_4&#45;&gt;p3_7</title>
<path fill="none" stroke="#64748b" stroke-width="1.1" d="M344.62,-295.58C359.05,-281.31 379.14,-261.43 394.65,-246.09"/>
<polygon fill="#64748b" stroke="#64748b" stroke-width="1.1" points="396.47,-247.74 399.72,-241.08 393.02,-244.26 396.47,-247.74"/>
</g>
<!-- p1_5 -->
<g id="node10" class="node">
<title>p1_5</title>
<g id="a_node10"><a xlink:href="material3_roadmap.md#p1-5" xlink:title="Implement the shared presentation&#45;pin host" target="_top">
<path fill="#ffffff" stroke="#cbd5e1" stroke-width="2.2" d="M340,-396C340,-396 310,-396 310,-396 304,-396 298,-390 298,-384 298,-384 298,-372 298,-372 298,-366 304,-360 310,-360 310,-360 340,-360 340,-360 346,-360 352,-366 352,-372 352,-372 352,-384 352,-384 352,-390 346,-396 340,-396"/>
<text text-anchor="middle" x="325" y="-375.5" font-family="DejaVu Sans" font-size="10.00" fill="#334155">P1.5</text>
</a>
</g>
</g>
<!-- p1_5&#45;&gt;p1_6 -->
<g id="edge13" class="edge">
<title>p1_5&#45;&gt;p1_6</title>
<path fill="none" stroke="#64748b" stroke-width="1.1" d="M352.12,-378C362.22,-378 373.9,-378 384.6,-378"/>
<polygon fill="#64748b" stroke="#64748b" stroke-width="1.1" points="384.82,-380.45 391.82,-378 384.82,-375.55 384.82,-380.45"/>
</g>
<!-- p1_7 -->
<g id="node12" class="node">
<title>p1_7</title>
<g id="a_node12"><a xlink:href="material3_roadmap.md#p1-7" xlink:title="Implement Material 3 menus" target="_top">
<path fill="#ffffff" stroke="#eab308" stroke-width="2.2" d="M528,-359C528,-359 498,-359 498,-359 492,-359 486,-353 486,-347 486,-347 486,-335 486,-335 486,-329 492,-323 498,-323 498,-323 528,-323 528,-323 534,-323 540,-329 540,-335 540,-335 540,-347 540,-347 540,-353 534,-359 528,-359"/>
<text text-anchor="middle" x="513" y="-338.5" font-family="DejaVu Sans" font-size="10.00" fill="#334155">P1.7</text>
</a>
</g>
</g>
<!-- p1_6&#45;&gt;p1_7 -->
<g id="edge14" class="edge">
<title>p1_6&#45;&gt;p1_7</title>
<path fill="none" stroke="#64748b" stroke-width="1.1" d="M446.12,-367.5C456.41,-363.36 468.35,-358.55 479.22,-354.18"/>
<polygon fill="#64748b" stroke="#64748b" stroke-width="1.1" points="480.24,-356.42 485.82,-351.53 478.41,-351.87 480.24,-356.42"/>
</g>
<!-- p1_7&#45;&gt;p1_11 -->
<g id="edge22" class="edge">
<title>p1_7&#45;&gt;p1_11</title>
<path fill="none" stroke="#64748b" stroke-width="1.1" d="M540.12,-341C550.22,-341 561.9,-341 572.6,-341"/>
<polygon fill="#64748b" stroke="#64748b" stroke-width="1.1" points="572.82,-343.45 579.82,-341 572.82,-338.55 572.82,-343.45"/>
</g>
<!-- p1_8&#45;&gt;p1_11 -->
<g id="edge23" class="edge">
<title>p1_8&#45;&gt;p1_11</title>
<path fill="none" stroke="#64748b" stroke-width="1.1" d="M443.8,-413.81C455.95,-405.14 471.24,-395.13 486,-388 512.07,-375.41 521.05,-378.57 548,-368 556.24,-364.77 564.97,-360.93 573.09,-357.18"/>
<polygon fill="#64748b" stroke="#64748b" stroke-width="1.1" points="574.44,-359.25 579.74,-354.06 572.36,-354.82 574.44,-359.25"/>
</g>
<!-- p1_9&#45;&gt;p1_10 -->
<g id="edge20" class="edge">
<title>p1_9&#45;&gt;p1_10</title>
<path fill="none" stroke="#64748b" stroke-width="1.1" d="M438.62,-342.42C453.05,-356.69 473.14,-376.57 488.65,-391.91"/>
<polygon fill="#64748b" stroke="#64748b" stroke-width="1.1" points="487.02,-393.74 493.72,-396.92 490.47,-390.26 487.02,-393.74"/>
</g>
<!-- p1_10&#45;&gt;p1_11 -->
<g id="edge24" class="edge">
<title>p1_10&#45;&gt;p1_11</title>
<path fill="none" stroke="#64748b" stroke-width="1.1" d="M536.74,-396.71C549.22,-386.67 564.8,-374.14 578.01,-363.51"/>
<polygon fill="#64748b" stroke="#64748b" stroke-width="1.1" points="579.6,-365.38 583.52,-359.08 576.53,-361.56 579.6,-365.38"/>
</g>
<!-- p2_4 -->
<g id="node20" class="node">
<title>p2_4</title>
<g id="a_node20"><a xlink:href="material3_roadmap.md#p2-4" xlink:title="Implement the Material 3 Wi&#45;Fi configuration flow" target="_top">
<path fill="#ffffff" stroke="#eab308" stroke-width="2.2" d="M716,-106C716,-106 686,-106 686,-106 680,-106 674,-100 674,-94 674,-94 674,-82 674,-82 674,-76 680,-70 686,-70 686,-70 716,-70 716,-70 722,-70 728,-76 728,-82 728,-82 728,-94 728,-94 728,-100 722,-106 716,-106"/>
<text text-anchor="middle" x="701" y="-85.5" font-family="DejaVu Sans" font-size="10.00" fill="#334155">P2.4</text>
</a>
</g>
</g>
<!-- p1_11&#45;&gt;p2_4 -->
<g id="edge28" class="edge">
<title>p1_11&#45;&gt;p2_4</title>
<path fill="none" stroke="#64748b" stroke-width="1.1" d="M614.62,-322.8C630.83,-278.22 672.55,-163.48 691,-112.75"/>
<polygon fill="#64748b" stroke="#64748b" stroke-width="1.1" points="693.35,-113.45 693.44,-106.03 688.75,-111.77 693.35,-113.45"/>
</g>
<!-- p2_1&#45;&gt;p2_4 -->
<g id="edge29" class="edge">
<title>p2_1&#45;&gt;p2_4</title>
<path fill="none" stroke="#64748b" stroke-width="1.1" d="M164.18,-88C200.19,-88 267.01,-88 324,-88 324,-88 324,-88 514,-88 567.43,-88 629.5,-88 666.72,-88"/>
<polygon fill="#64748b" stroke="#64748b" stroke-width="1.1" points="666.82,-90.45 673.82,-88 666.82,-85.55 666.82,-90.45"/>
</g>
<!-- p3_5 -->
<g id="node26" class="node">
<title>p3_5</title>
<g id="a_node26"><a xlink:href="material3_roadmap.md#p3-5" xlink:title="Design multiline editing and composition" target="_top">
<path fill="#ffffff" stroke="#eab308" stroke-width="2.2" d="M246,-187C246,-187 216,-187 216,-187 210,-187 204,-181 204,-175 204,-175 204,-163 204,-163 204,-157 210,-151 216,-151 216,-151 246,-151 246,-151 252,-151 258,-157 258,-163 258,-163 258,-175 258,-175 258,-181 252,-187 246,-187"/>
<text text-anchor="middle" x="231" y="-166.5" font-family="DejaVu Sans" font-size="10.00" fill="#334155">P3.5</text>
</a>
</g>
</g>
<!-- p2_1&#45;&gt;p3_5 -->
<g id="edge37" class="edge">
<title>p2_1&#45;&gt;p3_5</title>
<path fill="none" stroke="#64748b" stroke-width="1.1" d="M158.88,-106.38C172.26,-118.17 189.74,-133.56 204.02,-146.13"/>
<polygon fill="#64748b" stroke="#64748b" stroke-width="1.1" points="202.65,-148.18 209.52,-150.97 205.89,-144.51 202.65,-148.18"/>
</g>
<!-- p2_3 -->
<g id="node19" class="node">
<title>p2_3</title>
<g id="a_node19"><a xlink:href="material3_roadmap.md#p2-3" xlink:title="Implement progress indicators" target="_top">
<path fill="#ffffff" stroke="#eab308" stroke-width="2.2" d="M622,-61C622,-61 592,-61 592,-61 586,-61 580,-55 580,-49 580,-49 580,-37 580,-37 580,-31 586,-25 592,-25 592,-25 622,-25 622,-25 628,-25 634,-31 634,-37 634,-37 634,-49 634,-49 634,-55 628,-61 622,-61"/>
<text text-anchor="middle" x="607" y="-40.5" font-family="DejaVu Sans" font-size="10.00" fill="#334155">P2.3</text>
</a>
</g>
</g>
<!-- p2_2&#45;&gt;p2_3 -->
<g id="edge27" class="edge">
<title>p2_2&#45;&gt;p2_3</title>
<path fill="none" stroke="#64748b" stroke-width="1.1" d="M164.18,-34.92C200.18,-36.1 266.99,-38 324,-38 324,-38 324,-38 420,-38 473.45,-38 535.51,-40.09 572.72,-41.57"/>
<polygon fill="#64748b" stroke="#64748b" stroke-width="1.1" points="572.73,-44.02 579.82,-41.85 572.93,-39.12 572.73,-44.02"/>
</g>
<!-- p2_3&#45;&gt;p2_4 -->
<g id="edge30" class="edge">
<title>p2_3&#45;&gt;p2_4</title>
<path fill="none" stroke="#64748b" stroke-width="1.1" d="M634.12,-55.77C644.51,-60.86 656.58,-66.76 667.52,-72.11"/>
<polygon fill="#64748b" stroke="#64748b" stroke-width="1.1" points="666.45,-74.32 673.82,-75.19 668.61,-69.92 666.45,-74.32"/>
</g>
<!-- p2_5 -->
<g id="node21" class="node">
<title>p2_5</title>
<g id="a_node21"><a xlink:href="material3_roadmap.md#p2-5" xlink:title="Verify the configuration flow on target" target="_top">
<path fill="#ffffff" stroke="#eab308" stroke-width="2.2" d="M810,-106C810,-106 780,-106 780,-106 774,-106 768,-100 768,-94 768,-94 768,-82 768,-82 768,-76 774,-70 780,-70 780,-70 810,-70 810,-70 816,-70 822,-76 822,-82 822,-82 822,-94 822,-94 822,-100 816,-106 810,-106"/>
<text text-anchor="middle" x="795" y="-85.5" font-family="DejaVu Sans" font-size="10.00" fill="#334155">P2.5</text>
</a>
</g>
</g>
<!-- p2_4&#45;&gt;p2_5 -->
<g id="edge31" class="edge">
<title>p2_4&#45;&gt;p2_5</title>
<path fill="none" stroke="#64748b" stroke-width="1.1" d="M728.12,-88C738.22,-88 749.9,-88 760.6,-88"/>
<polygon fill="#64748b" stroke="#64748b" stroke-width="1.1" points="760.82,-90.45 767.82,-88 760.82,-85.55 760.82,-90.45"/>
</g>
<!-- p3_2 -->
<g id="node23" class="node">
<title>p3_2</title>
<g id="a_node23"><a xlink:href="material3_roadmap.md#p3-2" xlink:title="Reconcile existing control implementations with P3.1" target="_top">
<path fill="#ffffff" stroke="#eab308" stroke-width="2.2" d="M246,-241C246,-241 216,-241 216,-241 210,-241 204,-235 204,-229 204,-229 204,-217 204,-217 204,-211 210,-205 216,-205 216,-205 246,-205 246,-205 252,-205 258,-211 258,-217 258,-217 258,-229 258,-229 258,-235 252,-241 246,-241"/>
<text text-anchor="middle" x="231" y="-220.5" font-family="DejaVu Sans" font-size="10.00" fill="#334155">P3.2</text>
</a>
</g>
</g>
<!-- p3_1&#45;&gt;p3_2 -->
<g id="edge34" class="edge">
<title>p3_1&#45;&gt;p3_2</title>
<path fill="none" stroke="#64748b" stroke-width="1.1" d="M164.12,-223C174.22,-223 185.9,-223 196.6,-223"/>
<polygon fill="#64748b" stroke="#64748b" stroke-width="1.1" points="196.82,-225.45 203.82,-223 196.82,-220.55 196.82,-225.45"/>
</g>
<!-- p3_4 -->
<g id="node25" class="node">
<title>p3_4</title>
<g id="a_node25"><a xlink:href="material3_roadmap.md#p3-4" xlink:title="Implement adaptive navigation" target="_top">
<path fill="#ffffff" stroke="#eab308" stroke-width="2.2" d="M528,-187C528,-187 498,-187 498,-187 492,-187 486,-181 486,-175 486,-175 486,-163 486,-163 486,-157 492,-151 498,-151 498,-151 528,-151 528,-151 534,-151 540,-157 540,-163 540,-163 540,-175 540,-175 540,-181 534,-187 528,-187"/>
<text text-anchor="middle" x="513" y="-166.5" font-family="DejaVu Sans" font-size="10.00" fill="#334155">P3.4</text>
</a>
</g>
</g>
<!-- p3_3&#45;&gt;p3_4 -->
<g id="edge36" class="edge">
<title>p3_3&#45;&gt;p3_4</title>
<path fill="none" stroke="#64748b" stroke-width="1.1" d="M446.12,-169C456.22,-169 467.9,-169 478.6,-169"/>
<polygon fill="#64748b" stroke="#64748b" stroke-width="1.1" points="478.82,-171.45 485.82,-169 478.82,-166.55 478.82,-171.45"/>
</g>
<!-- p3_6 -->
<g id="node27" class="node">
<title>p3_6</title>
<g id="a_node27"><a xlink:href="material3_roadmap.md#p3-6" xlink:title="Implement multiline Material 3 text fields" target="_top">
<path fill="#ffffff" stroke="#eab308" stroke-width="2.2" d="M340,-187C340,-187 310,-187 310,-187 304,-187 298,-181 298,-175 298,-175 298,-163 298,-163 298,-157 304,-151 310,-151 310,-151 340,-151 340,-151 346,-151 352,-157 352,-163 352,-163 352,-175 352,-175 352,-181 346,-187 340,-187"/>
<text text-anchor="middle" x="325" y="-166.5" font-family="DejaVu Sans" font-size="10.00" fill="#334155">P3.6</text>
</a>
</g>
</g>
<!-- p3_5&#45;&gt;p3_6 -->
<g id="edge38" class="edge">
<title>p3_5&#45;&gt;p3_6</title>
<path fill="none" stroke="#64748b" stroke-width="1.1" d="M258.12,-169C268.22,-169 279.9,-169 290.6,-169"/>
<polygon fill="#64748b" stroke="#64748b" stroke-width="1.1" points="290.82,-171.45 297.82,-169 290.82,-166.55 290.82,-171.45"/>
</g>
</g>
</svg>
